<svg xmlns="http://www.w3.org/2000/svg" viewBox="0 0 90.93 119.35"><defs><style>.cls-1{fill:#fff;fill-rule:evenodd;}</style></defs><g id="Layer_2" data-name="Layer 2"><g id="Layer_1-2" data-name="Layer 1"><path class="cls-1" d="M54,0S58.2,14.83,58.2,26.86c0,11.52-7.68,20.87-19.38,20.87A20.52,20.52,0,0,1,18.19,26.86l.17-2A76.34,76.34,0,0,0,0,74.59c0,24.73,20.35,44.76,45.47,44.76s45.46-20,45.46-44.76C90.93,44.43,76.21,17.51,54,0ZM43,69.89c-7.73,1.56-12.33,6.49-12.33,13.48,0,7.5,6.31,13.54,14.15,13.54A20.92,20.92,0,0,0,65.93,76.15,58,58,0,0,0,63.31,58.7C58.82,64.68,50.81,68.32,43,69.89Zm-31.65,4.7c0,18.52,15.28,33.57,34.1,33.57s34.1-15,34.1-33.57A81.57,81.57,0,0,0,68.82,34.13c-3,14.55-14.89,24.79-30,24.79A32,32,0,0,1,16.25,49.8,65.67,65.67,0,0,0,11.37,74.59Z"/></g></g></svg>