<svg xmlns="http://www.w3.org/2000/svg" viewBox="0 0 191.39 208.11"><defs><style>.cls-1{fill:#6dc9a6;}</style></defs><g id="Layer_2" data-name="Layer 2"><g id="Layer_1-2" data-name="Layer 1"><path class="cls-1" d="M157.63,79c4.87,29.55,11.74,61,2,90.33-4,12-11.29,23.41-22.35,30-11.45,6.87-26,7.76-37.94,1.58-12.11-6.27-22.17-18.85-22.77-32.84-.08-1.92-3.08-1.93-3,0,.56,13.19,8.73,25.06,19.34,32.45a42,42,0,0,0,39.3,4.62c12.84-5.06,22.25-15.88,27.72-28.32,6.18-14,7.93-29.72,7.5-44.94-.45-16.09-3.26-32-5.93-47.83q-.49-2.94-1-5.89c-.32-1.9-3.21-1.09-2.9.8Z"/><path class="cls-1" d="M157.08,81.84,157.5,85a1.08,1.08,0,0,0,.13.58,1.14,1.14,0,0,0,.31.48,1.54,1.54,0,0,0,1.06.44,1.56,1.56,0,0,0,1.06-.44A1.44,1.44,0,0,0,160.5,85l-.42-3.15a1.06,1.06,0,0,0-.13-.58,1.14,1.14,0,0,0-.31-.48,1.5,1.5,0,0,0-1.06-.44,1.54,1.54,0,0,0-1.06.44,1.44,1.44,0,0,0-.44,1.06Z"/><path class="cls-1" d="M95.39,30.38A55.38,55.38,0,0,0,78.18,51.47c-3.74,8.21-5,18,.28,25.87,3.53,5.24,9,8.45,14.87,10.55,1.83.65,2.61-2.24.8-2.89-4.74-1.7-9.37-4.25-12.48-8.32a18.83,18.83,0,0,1-3.8-11.16c-.11-8.41,4.27-16.58,9.37-23A53,53,0,0,1,96.9,33c1.53-1.14,0-3.75-1.51-2.59Z"/><path class="cls-1" d="M155.11,84.05c1.24-.62,2.46-1.28,3.66-2a1.59,1.59,0,0,0,.69-.9,1.5,1.5,0,0,0-2.2-1.69c-1.2.69-2.42,1.35-3.66,2a1.5,1.5,0,0,0-.54,2.05,1.52,1.52,0,0,0,.9.69,1.65,1.65,0,0,0,1.15-.15Z"/><path class="cls-1" d="M129.34,91.59a80.86,80.86,0,0,0,16.12-3.54c1.82-.6,1-3.5-.8-2.89a77.17,77.17,0,0,1-15.32,3.43,1.54,1.54,0,0,0-1.5,1.5,1.5,1.5,0,0,0,1.5,1.5Z"/><path class="cls-1" d="M110,91.55c1.23.15,2.47.27,3.71.36a1.47,1.47,0,0,0,1.06-.44,1.54,1.54,0,0,0,.44-1.06,1.56,1.56,0,0,0-.44-1.06,1.68,1.68,0,0,0-1.06-.44c-1.24-.09-2.48-.21-3.71-.36a1.5,1.5,0,0,0-1.5,1.5,1.54,1.54,0,0,0,.44,1.06l.3.24a1.57,1.57,0,0,0,.76.2Z"/><path class="cls-1" d="M90,86.52a75.37,75.37,0,0,0,11.29,3.53,1.55,1.55,0,0,0,1.85-1,1.53,1.53,0,0,0-1-1.85,75.81,75.81,0,0,1-11.3-3.52,1.51,1.51,0,0,0-1.84,1.05,1.52,1.52,0,0,0,1,1.84Z"/><path class="cls-1" d="M102.58,89.67c11.28,3.33,23.29,2.39,34.54-.52,4.33-1.12,8.64-2.44,12.88-3.86a71.87,71.87,0,0,0,12.28-5.24,28.69,28.69,0,0,0,10.49-9.41c1-1.64-1.57-3.14-2.59-1.51-4.33,6.88-12.62,10.37-20,12.93-9,3.13-18.46,5.94-28,6.59a53.33,53.33,0,0,1-18.77-1.87c-1.86-.55-2.65,2.34-.8,2.89Z"/><path class="cls-1" d="M94.69,39.36l-1,4.84A1.51,1.51,0,0,0,95.57,46a6.82,6.82,0,0,0,4.79-3.6,5.19,5.19,0,0,0-.75-5.82,1.5,1.5,0,0,0-1.82-.24,6.09,6.09,0,0,0-2.45,3,5,5,0,0,0,.23,3.7,1.52,1.52,0,0,0,2.05.54c2.06-1.17,3.49-3.68,2.6-6a1.53,1.53,0,0,0-.87-1,1.43,1.43,0,0,0-1.33.07,4.77,4.77,0,0,0-1.94,2.46,4,4,0,0,0,.25,3,1.5,1.5,0,0,0,1.49.71,1.52,1.52,0,0,0,1.25-1.07l1.06-3.13a1.52,1.52,0,0,0-2.2-1.7,5.63,5.63,0,0,0-2.88,6.39,1.51,1.51,0,0,0,2.2.89,5.68,5.68,0,0,0,2.32-2.9,4.7,4.7,0,0,0-.25-3.51,1.53,1.53,0,0,0-2.06-.54,5.12,5.12,0,0,0-2.79,5.46,1.51,1.51,0,0,0,1.85,1,7.49,7.49,0,0,0,3.91-3,5.4,5.4,0,0,0,.66-4.39,1.53,1.53,0,0,0-2.21-.9,8.87,8.87,0,0,0-4.82,7.15,1.51,1.51,0,0,0,1.9,1.44,6.88,6.88,0,0,0,3.59-2.91,5.08,5.08,0,0,0,.48-4.18,1.52,1.52,0,0,0-2.2-.9,7.35,7.35,0,0,0-3.9,7.64,1.52,1.52,0,0,0,1,1.05,3.08,3.08,0,0,0,3.51-1.36A2.43,2.43,0,0,0,97.38,40a1.54,1.54,0,0,0-2.06.54,1.52,1.52,0,0,0,.54,2.05c.06,0,.14.08.19.1s-.26-.23-.1-.06l-.15-.2c0,.1,0,.08,0,0s0,.17-.07-.33c0,0,0,.09,0,.14,0-.43,0-.29,0-.16s.16-.34.05-.13-.18.23,0,0-.12.08-.15.14c.15-.26.24-.13.07-.07s0,0,.11,0a.66.66,0,0,0-.2.06c-.1.05.36,0,.11,0s.13,0,.15,0a1.25,1.25,0,0,0-.26-.07l1,1a1.18,1.18,0,0,1,0-.2c0,.23,0,.26,0,.09s0-.27,0-.41,0-.27,0-.4c0-.33-.07.29,0,0a7.23,7.23,0,0,1,.21-.8c0-.07.05-.14.08-.2-.08.19-.09.22,0,.06s.11-.22.18-.33a3.11,3.11,0,0,1,.44-.69c-.28.28.06-.07.12-.13l.27-.29.3-.27c0-.05.45-.36.15-.14a8.67,8.67,0,0,1,.81-.53l-2.2-.89c0,.12.08.24.11.37a1.06,1.06,0,0,1,0,.19c0-.25,0-.28,0-.12a2.83,2.83,0,0,1,0,.29c0,.08-.06.3,0,.38,0-.24,0-.28,0-.12s0,.13,0,.19,0,.19-.08.28l-.06.18c.09-.2.1-.23,0-.08l-.16.31c-.06.1-.12.2-.19.3l-.12.16c.13-.16.14-.18,0-.06a5.3,5.3,0,0,1-.53.53l-.17.14,0,0-.28.18a3.23,3.23,0,0,1-.41.22l-.21.11c.18-.08.19-.08,0,0l1.89,1.45c0-.1,0-.35,0-.43,0,.23,0,.26,0,.09a1.55,1.55,0,0,1,0-.21,5.44,5.44,0,0,1,.2-.72c0-.07.05-.14.07-.21s.06-.13,0,.06a1.47,1.47,0,0,1,.19-.4,6.59,6.59,0,0,1,.44-.72c0-.06.31-.39.08-.11l.3-.35q.3-.33.63-.63l.33-.27c-.28.23.13-.09.19-.13a8.25,8.25,0,0,1,.86-.53L98,37.25c0,.13.07.25.1.37s0-.06,0-.12a.62.62,0,0,0,0,.19c0,.12,0,.25,0,.37s0,.13,0,.19c0,.23,0-.1,0-.12a1.85,1.85,0,0,0-.08.37c0,.12-.08.24-.12.36s0-.09,0-.09a1.59,1.59,0,0,0-.08.18c-.07.13-.14.26-.22.39l-.12.16s-.16.22,0,.06,0,0,0,0l-.14.16-.3.29-.16.15-.06,0c.16-.13,0,0-.06,0l-.19.13-.38.23-.41.2c-.18.1.24-.08,0,0l-.27.1L97.36,42c0-.28,0,.23,0,0a2.26,2.26,0,0,0,0-.26c0-.06,0-.13,0-.2,0-.27-.07.21,0,.05a3.17,3.17,0,0,0,.12-.44c.08-.26-.1.18,0,0l.12-.23.11-.18s.22-.28.08-.11l.1-.11.15-.16a1.9,1.9,0,0,0,.21-.19c.15-.14-.28.19,0,0a5.48,5.48,0,0,1,.52-.31l-2-.54c-.16-.34,0-.1,0,0a2.33,2.33,0,0,1,.07.25l0,.15c0,.12,0,.07,0-.14a1.12,1.12,0,0,1,0,.2c0,.1,0,.2,0,.31s0-.1,0-.1-.13.5-.14.56a.36.36,0,0,0,0,.09c0,.11,0,.07,0-.11,0,0-.1.19-.13.24l-.14.23s-.22.27-.08.11-.09.1-.1.1l-.2.21-.22.19c.2-.17,0,0-.08,0l2.2.9c0-.1-.06-.2-.08-.3a.4.4,0,0,1,0-.15c0-.11,0-.07,0,.15a3.1,3.1,0,0,1,0-.61c0-.3-.08.31,0,0a1.83,1.83,0,0,1,.06-.25,1.71,1.71,0,0,1,.09-.3c.11-.32,0,.08,0,0s.18-.34.29-.51a1.13,1.13,0,0,1,.1-.13c.06-.09,0-.06-.07.08a2.46,2.46,0,0,1,.22-.25,5.68,5.68,0,0,1,.51-.47c-.16.13-.1.08,0,0l.36-.22-2.2-1.69L96.18,41l2.74-.36c.18.39,0,0,0-.12s0-.14,0,.1c0-.07,0-.14,0-.21a1.41,1.41,0,0,1,0-.2c0-.16,0-.13,0,.1,0,0,.09-.31.09-.34s0-.07,0,.11a1.51,1.51,0,0,1,.09-.18c0-.07.26-.5.06-.15a1.57,1.57,0,0,1,.31-.32.8.8,0,0,1,.17-.15c-.15.11-.15.12,0,0l-2.2-.89c.07.17.1.36.16.53s0-.32,0-.05c0,.1,0,.2,0,.3a.76.76,0,0,1,0,.15q0,.16,0-.15s0,.23,0,.24a1.82,1.82,0,0,1-.07.25.78.78,0,0,1,0,.14c0,.11,0,.07,0-.12,0,.1-.19.38-.25.46s-.17.37,0,0a1.26,1.26,0,0,1-.22.24c-.13.14-.27.26-.41.39.26-.24,0,0-.07,0l-.31.18,2,.54c.16.37,0,0,0,0s0-.2-.07-.3c-.08-.27,0,.23,0,.05a2.28,2.28,0,0,0,0-.26c0-.1,0-.2,0-.3,0-.34-.08.32,0,0s.09-.37.15-.55.06,0,0,0,.13-.26.15-.28a2.61,2.61,0,0,1,.17-.28c.14-.23-.12.13,0,0a6.14,6.14,0,0,1,.43-.45s.34-.28.05-.06l.3-.21-1.82-.23c.2.22,0,.1,0,0,0,.06.11.16.15.22l.13.22c.07.15.06.29,0,0,0,.16.11.32.15.48a1.69,1.69,0,0,0,0,.24c-.06-.12,0-.35,0-.07a2.78,2.78,0,0,1,0,.5c0,.15-.12.3,0-.07a1.3,1.3,0,0,0,0,.21,4.5,4.5,0,0,1-.14.49s-.13.35,0,.1,0,0-.06.09a2.86,2.86,0,0,1-.24.42s-.14.16-.15.22c.14-.18.17-.21.07-.08l-.06.07c-.12.14-.25.27-.38.4l-.21.19-.11.09.11-.09s-.9.64-1,.59l.17-.07-.19.08-.25.08a5.33,5.33,0,0,1-.66.17L96.62,45l1-4.84a1.5,1.5,0,0,0-2.9-.8Z"/><path class="cls-1" d="M170.36,69.29c-7.35,16.89-10.77,35.4-9,53.78.19,1.91,3.19,1.93,3,0A105.38,105.38,0,0,1,173,70.81c.76-1.75-1.82-3.28-2.59-1.52Z"/><path class="cls-1" d="M168.47,57.3a22.82,22.82,0,0,1-.05,19.32c-.84,1.73,1.75,3.26,2.59,1.52a26.07,26.07,0,0,0,.05-22.35c-.81-1.75-3.4-.23-2.59,1.51Z"/><path class="cls-1" d="M98.32,33.93c-4.44-3.82-4.17-10.57-1.07-15.15,1.86-2.73,5-4.42,7.78-6.07a71.71,71.71,0,0,1,9.6-4.81C127.54,2.62,142.27,1,155.52,6.05a26.89,26.89,0,0,1,4.87,2.25c1.38.88,2.56,2.1,4,3a43.23,43.23,0,0,1,4.46,3.1c1.25,1.07,2.49,2.15,3.71,3.26,4.86,4.45,9.49,9.36,12.63,15.21a24.46,24.46,0,0,1,2.35,18.59,67.72,67.72,0,0,1-4.17,9.95c-1.58,3.29-3.26,6.52-5,9.74-6.71,12.67-14.05,25.52-16.31,39.89-.29,1.81-.5,3.64-.63,5.47s2.86,1.92,3,0c1.11-15.44,8.74-29.2,15.86-42.59,3.56-6.69,7.36-13.51,9.8-20.71a26.83,26.83,0,0,0-1.47-20.09c-2.94-6.32-7.73-11.7-12.76-16.44a57,57,0,0,0-8.31-6.9,30.52,30.52,0,0,1-4.29-3,17.1,17.1,0,0,0-4.75-2.72c-13.81-6-29.54-4.91-43.37.43a77.06,77.06,0,0,0-10.07,4.74c-3,1.71-6.56,3.56-8.94,6.17C92,19.94,90.56,27.05,93.45,32.6a11.65,11.65,0,0,0,2.75,3.45c1.46,1.25,3.59-.86,2.12-2.12Z"/><path class="cls-1" d="M128,41.14c0,2.16-1.13,4.46-3.51,4.73-1.42.17-2.79-.58-4.1-1s-2.84-1-4.26-1.46c-6.06-2.09-12-4.52-16.89-8.8-1.45-1.27-3.58.85-2.12,2.13,5.79,5.09,12.88,7.74,20.08,10.2,3,1,6.22,2.79,9.41,1.47,2.92-1.21,4.35-4.2,4.39-7.24a1.5,1.5,0,0,0-3,0Z"/><path class="cls-1" d="M133,54.26c-.89-2.45.4-4.87,2.46-6.28a6,6,0,0,1,7-.11c4.69,3.25,4.45,10.1,1.21,14.22a18,18,0,0,1-8.45,5.67c-1.82.62-1,3.51.79,2.89,7-2.36,13.92-8.47,13-16.55a12.27,12.27,0,0,0-4.92-8.74,8.86,8.86,0,0,0-9.73-.22c-3.33,2-5.63,6-4.22,9.92.66,1.8,3.56,1,2.89-.8Z"/><path class="cls-1" d="M89.71,71.2a16.78,16.78,0,0,0,21.37-3c1.25-1.46-.87-3.59-2.12-2.12a13.8,13.8,0,0,1-17.73,2.5c-1.62-1.07-3.12,1.53-1.52,2.59Z"/><path class="cls-1" d="M78.33,173.15c-3.81-8-3.11-17.09-5.17-25.53-1.62-6.65-5.13-13.8-11.7-16.75-4-1.8-8.4-1.76-12.68-1.08-4,.63-8.11,1.64-11.48,3.9a12.46,12.46,0,0,0-5.69,8.72,8.81,8.81,0,0,0,4,9,18.85,18.85,0,0,0,6.75,2q4,.64,8.09,1a102.2,102.2,0,0,0,16.69-.06c1.91-.17,1.93-3.17,0-3A94.57,94.57,0,0,1,41,150.06c-3.27-.65-6.28-2.12-6.47-5.83a9.1,9.1,0,0,1,4.3-7.94c3-2,6.59-2.89,10.09-3.5,3.78-.66,8-.85,11.5.89,5.78,2.84,8.61,9.3,10,15.26,2,8.59,1.47,17.6,5.35,25.72.83,1.74,3.42.22,2.59-1.51Z"/><path class="cls-1" d="M65.76,109a30.28,30.28,0,0,1-15-28.15,1.52,1.52,0,0,0-2.56-1.06A45.6,45.6,0,0,1,22.86,93.71a1.51,1.51,0,0,0-1.05,1.84L26.47,110c.78,2.43,1.55,4.86,2.35,7.28a17,17,0,0,0,2.74,5.52c5.37,6.57,15.08,2.51,20.89-1.1a50.59,50.59,0,0,0,11.28-9.55c1.28-1.45-.84-3.58-2.12-2.12a47.87,47.87,0,0,1-8.75,7.82,31.71,31.71,0,0,1-9.81,4.91c-3,.8-6.68.87-9-1.63a13.25,13.25,0,0,1-2.48-5c-.7-2.14-1.39-4.29-2.08-6.43l-4.8-14.89L23.66,96.6A48.26,48.26,0,0,0,50.34,81.91l-2.56-1.06a33.26,33.26,0,0,0,16.47,30.74A1.5,1.5,0,0,0,65.76,109Z"/><path class="cls-1" d="M47.6,65.62a25.06,25.06,0,0,0,17.93,11l-1.3-2.26q-2.37,4.35-5.09,8.5-1.32,2-2.73,4c-.44.62-.89,1.25-1.35,1.86-.27.37-.54.75-.83,1.11l-.26.32a1.68,1.68,0,0,0-.31,2.07c1.93.11,1.92-2.89,0-3-2.15-.11-2.61,2.92-1,3.93,2.29,1.4,4.15-1.82,5.22-3.28a123.71,123.71,0,0,0,8.9-14,1.52,1.52,0,0,0-1.29-2.26A21.77,21.77,0,0,1,50.2,64.11c-1.07-1.6-3.67-.1-2.6,1.51Z"/><path class="cls-1" d="M51,66.18l-3.23-7.24a1.51,1.51,0,0,0-2.59,0A48.22,48.22,0,0,1,32.07,76.38a42.9,42.9,0,0,1-4.44,3.26,12.76,12.76,0,0,0-2.31,1.47,3.11,3.11,0,0,0-.39,2.53,10.58,10.58,0,0,0,5.63,8.26c1.71.88,3.23-1.71,1.51-2.59a7.62,7.62,0,0,1-4.19-7.14l-.74,1.3a50.61,50.61,0,0,0,20.63-23H45.18l3.23,7.24c.78,1.76,3.37.23,2.59-1.52Z"/><path class="cls-1" d="M6.9,62.53A23.06,23.06,0,0,0,23,53.22H20.39a152.58,152.58,0,0,0,15,21.45c1.24,1.49,3.35-.64,2.12-2.12A148.79,148.79,0,0,1,23,51.7a1.52,1.52,0,0,0-2.59,0A19.77,19.77,0,0,1,6.9,59.53c-1.9.21-1.92,3.22,0,3Z"/><path class="cls-1" d="M.64,65.65l6.22,11.8c1.63,3.09,3.13,6.48,5.64,9a8.85,8.85,0,0,0,8.06,2.76,6.3,6.3,0,0,0,5.35-5.49c.2-1.92-2.8-1.91-3,0s-2.57,2.7-4.21,2.66c-2.52-.06-4.45-2.17-5.74-4.13A92.34,92.34,0,0,1,8.41,74L3.23,64.14c-.9-1.71-3.49-.2-2.59,1.51Z"/><path class="cls-1" d="M7.2,60.45a5.73,5.73,0,0,0-4.63.9A6.59,6.59,0,0,0,.81,63.16,5.64,5.64,0,0,0,0,65.62a1.54,1.54,0,0,0,.44,1.06,1.52,1.52,0,0,0,1.06.44,1.46,1.46,0,0,0,1.06-.44A1.66,1.66,0,0,0,3,65.62s0-.09,0-.14l0,.4a3.61,3.61,0,0,1,.15-.65l.06-.17c.06-.19-.07.15-.07.17a1,1,0,0,1,.15-.32l.16-.27.1-.15s.17-.23,0,0,.06-.06.11-.12a3,3,0,0,1,.25-.25l.24-.21c.12-.11-.33.23-.11.08l.12-.08a4.25,4.25,0,0,1,.58-.35l.16-.07c.22-.11-.3.11-.13.05l.3-.11a3.93,3.93,0,0,1,.68-.15l-.39,0a4.1,4.1,0,0,1,1,0L6,63.26l.42.08a1.5,1.5,0,1,0,.79-2.89Z"/><path class="cls-1" d="M13.08,69.75a6.54,6.54,0,0,0,5.46,1.65c.34-.05.52-.43.55-.73l.48-5.93a.75.75,0,0,0-1.47-.2A15.83,15.83,0,0,0,23,79.43c.72.64,1.79-.42,1.07-1.06a14.33,14.33,0,0,1-4.48-13.44l-1.47-.19-.48,5.93.55-.72a4.93,4.93,0,0,1-4-1.26c-.72-.65-1.78.41-1.06,1.06Z"/><path class="cls-1" d="M17.66,76.42l7.93-6.32a.76.76,0,0,0,0-1.06.77.77,0,0,0-1.06,0L16.6,75.36a.75.75,0,0,0,0,1.06.75.75,0,0,0,1.06,0Z"/><path class="cls-1" d="M19.06,79.16l6.5-6.5c.68-.68-.38-1.74-1.07-1.06L18,78.09c-.68.69.38,1.75,1.06,1.07Z"/><path class="cls-1" d="M51.65,77a7.66,7.66,0,0,0-8.1-2.83,7.15,7.15,0,0,0-5.12,6.77A7.32,7.32,0,0,0,40,85.72a.75.75,0,0,0,1.06,0,.76.76,0,0,0,0-1.06,6.14,6.14,0,0,1-.24-6.74A5.6,5.6,0,0,1,47,75.56a5.67,5.67,0,0,1,3.31,2.15c.56.77,1.86,0,1.3-.76Z"/><path class="cls-1" d="M41.45,77.78,44,80.39a.75.75,0,0,0,1.06-1.07l-2.59-2.6a.75.75,0,0,0-1.06,0,.77.77,0,0,0,0,1.06Z"/><path class="cls-1" d="M40,80.3l2.6,3.9a.77.77,0,0,0,1,.27.76.76,0,0,0,.26-1l-2.59-3.89a.75.75,0,0,0-1.3.75Z"/><path class="cls-1" d="M37.59,110.18a3,3,0,0,0,.17,3.49,4,4,0,0,0,3.76,1.55,13.17,13.17,0,0,0,4.84-1.71,9.68,9.68,0,0,0,3.7-3.28,5.45,5.45,0,0,0-1.52-7.62c-3-1.94-6.54-1.11-9.84-1.65-1.67-.28-4.5-1.38-3.52-3.59s3.72-1.84,5.53-1.17c.91.33,1.3-1.12.4-1.45-2.62-1-6.18-.83-7.36,2.19s1.7,4.9,4.2,5.4c3.16.63,6.72-.28,9.61,1.43,3.21,1.9,1.91,5.78-.63,7.62a12.21,12.21,0,0,1-5.34,2.31,2.71,2.71,0,0,1-2.5-.75,1.6,1.6,0,0,1-.21-2c.56-.78-.74-1.53-1.29-.75Z"/><path class="cls-1" d="M36.08,95.34a81.92,81.92,0,0,1,10,17.7c.36.89,1.81.5,1.45-.39A83,83,0,0,0,37.37,94.58c-.57-.77-1.87,0-1.29.76Z"/><path class="cls-1" d="M34,97.13A72.67,72.67,0,0,1,44.19,115c.35.89,1.8.51,1.44-.39A74.93,74.93,0,0,0,35.08,96.07c-.59-.76-1.64.3-1.06,1.06Z"/><path class="cls-1" d="M154.38,85a135.55,135.55,0,0,1,6.05,35.12,218.35,218.35,0,0,1-1.07,35.24c-1.22,10.64-4,21.51-10.63,30.12A44.29,44.29,0,0,1,125.65,201a38.29,38.29,0,0,1-27-2.59c-8.24-4.06-15.28-11-18.62-19.64-4-10.44-3-22.06-7.08-32.5a27.57,27.57,0,0,0-8-11.71,20.12,20.12,0,0,0-12.18-4.39,21.45,21.45,0,0,0-12.32,3.5c-3.71,2.48-7.67,6.72-5.48,11.45C37,149.63,42.66,152,47,153.56A42,42,0,0,0,62.9,156a42.94,42.94,0,0,0,8-1.1c1.87-.44,1.08-3.33-.8-2.89a39,39,0,0,1-16.1.36,40.26,40.26,0,0,1-7.54-2.21,24.57,24.57,0,0,1-6.63-3.67c-1.75-1.49-3.3-3.63-2.07-5.94a13.29,13.29,0,0,1,4.76-4.63,18.85,18.85,0,0,1,11.94-2.61c9.82,1.13,15,10.2,17.2,18.94,2.66,10.5,2.14,21.71,7.34,31.5,8.8,16.56,28.92,25,46.93,20.31a47.05,47.05,0,0,0,23.4-14.54c6.93-7.95,10.53-17.93,12.23-28.22a193.6,193.6,0,0,0,2.1-34.11,154.79,154.79,0,0,0-4-34.64q-1-4.19-2.34-8.3c-.59-1.83-3.49-1-2.9.8Z"/><path class="cls-1" d="M162.27,122.39a132,132,0,0,1,.91,22.22c-.16,3.65-.47,7.3-.94,10.92a38.85,38.85,0,0,1-2.44,10.09,1.57,1.57,0,0,0,.54,2.06,1.51,1.51,0,0,0,2-.54c2.84-6.71,3.37-14.35,3.74-21.56a132.16,132.16,0,0,0-.86-23.19c-.23-1.89-3.24-1.91-3,0Z"/><path class="cls-1" d="M156.82,84.35l2,6.85a1.5,1.5,0,1,0,2.89-.8l-1.27-5.29A1.48,1.48,0,0,0,158.83,84a1.5,1.5,0,0,0-1.3,1.47,12.9,12.9,0,0,0,2.06,7.37,1.54,1.54,0,0,0,2.06.54,1.52,1.52,0,0,0,.53-2l-.33-.65-.18-.4c.06.15,0,0,0,0a12.36,12.36,0,0,1-.46-1.46c-.06-.23-.11-.47-.16-.71l-.06-.36c0-.27,0,.07,0-.1,0-.51-.08-1-.08-1.53a1.51,1.51,0,0,0-1.5-1.5,1.53,1.53,0,0,0-1.5,1.5,14,14,0,0,0,1.7,6.77l2.59-1.51a11.66,11.66,0,0,1-.81-1.47s-.18-.43-.07-.15c-.05-.13-.11-.26-.15-.39s-.18-.53-.26-.8-.14-.54-.2-.81-.05-.28-.07-.41c-.07-.33,0,.2,0-.16a11.66,11.66,0,0,1-.06-1.67l-2.95.4,1.27,5.29,2.89-.8-2-6.84a1.54,1.54,0,0,0-1.85-1,1.52,1.52,0,0,0-1,1.84Z"/><path class="cls-1" d="M155.39,80.49A70.08,70.08,0,0,1,105.78,88a67.16,67.16,0,0,1-13.87-4.66c-1.74-.81-3.27,1.77-1.52,2.59A73.28,73.28,0,0,0,143,89.21a71.47,71.47,0,0,0,13.93-6.13,1.5,1.5,0,0,0-1.52-2.59Z"/><path class="cls-1" d="M151.23,84.58c3-1.72,6.08-3.37,9-5.22a19.79,19.79,0,0,0,6.59-6.31c3.1-5.13,3.16-11.47,3.11-17.28l-2.95.4c.42,2.44.9,4.87,1.27,7.32.25,1.6.45,3.57-.83,4.79l2.36,1.82a16.25,16.25,0,0,0,1.46-8.27,1.5,1.5,0,0,0-3,0c-.43,6.14-5.69,10.63-10.62,13.58-5.56,3.32-11.7,5.83-16.23,10.62-1.33,1.4.79,3.53,2.12,2.12,4.8-5.08,11.53-7.37,17.25-11.17,5.28-3.52,10-8.53,10.48-15.15h-3a13.26,13.26,0,0,1-1.05,6.75,1.51,1.51,0,0,0,2.36,1.82c1.71-1.64,2-4,1.79-6.26-.3-2.94-1-5.86-1.47-8.77-.29-1.69-3-1.26-2.94.4,0,5.28.11,11.09-2.7,15.77a17.12,17.12,0,0,1-6,5.55c-2.78,1.71-5.65,3.28-8.48,4.9a1.5,1.5,0,0,0,1.51,2.59Z"/><path class="cls-1" d="M167.29,67.72c0,.23,0,.46,0,.68s.06-.35,0,0l-.06.33a7.94,7.94,0,0,1-.38,1.26c-.14.36.11-.23,0,0a2.1,2.1,0,0,1-.13.26,5.76,5.76,0,0,1-.33.6,5.13,5.13,0,0,1-.38.57c-.19.28.22-.26,0,0l-.25.3,2.56,1.06a1.77,1.77,0,0,1,0-.23c0-.26,0,0,0,.08a3,3,0,0,0,.1-.45,2.91,2.91,0,0,1,.12-.39c.1-.27,0,0,0,.06s.08-.17.1-.21.13-.24.21-.36.09-.12.13-.19-.22.25,0,0a6.65,6.65,0,0,1,.66-.64l-2.35-1.81-3,4.06L166.87,74l.63-1.62a1.51,1.51,0,0,0-.69-1.7,1.61,1.61,0,0,0-1.82.24l-1.08.85a1.52,1.52,0,0,0-.44,1.06,1.54,1.54,0,0,0,.44,1.07,1.51,1.51,0,0,0,1.06.43A1.69,1.69,0,0,0,166,73.9l1.08-.86-2.5-1.46L164,73.2a1.45,1.45,0,0,0,.15,1.15,1.55,1.55,0,0,0,.72.62,1.53,1.53,0,0,0,1.87-.62l3-4.06a1.47,1.47,0,0,0-.39-1.93,1.43,1.43,0,0,0-.91-.33,1.76,1.76,0,0,0-1.06.44,5.86,5.86,0,0,0-2.12,4.4,1.51,1.51,0,0,0,2.56,1.06,9.83,9.83,0,0,0,2.49-6.21,1.5,1.5,0,0,0-3,0Z"/><path class="cls-1" d="M169.2,72.8a69.69,69.69,0,0,0-7,28.26c-.05,2,2.77,1.86,3,0,1.11-8.64,2.2-17.29,2.66-26A1.51,1.51,0,0,0,165.34,74a17.11,17.11,0,0,0-4,9.23c-.19,1.53,2.1,2,2.79.76a12.62,12.62,0,0,0,1.58-4.53,1.5,1.5,0,0,0-2.9-.79,27,27,0,0,0-1.7,5.91,1.5,1.5,0,0,0,2.89.8,7.59,7.59,0,0,0,.39-4c-.24-1.71-3-1.25-3,.4v7.79h3V80.1h-3A92.46,92.46,0,0,1,160.88,94h3l1.48-13.9c.18-1.72-2.49-2-3-.39l-2.22,7.68,2.9.8,3.24-11.32a1.51,1.51,0,0,0-2.74-1.16A14.87,14.87,0,0,0,161.66,86c.22,1.34,2.13,1.36,2.75.36A56.31,56.31,0,0,0,172,66.39l-2.74.36c1.82,4,.87,8.55-.33,12.57-1.35,4.52-3,9-4.7,13.36l2.9.8a100.38,100.38,0,0,0,4.13-19c.23-1.91-2.77-1.9-3,0a101,101,0,0,1-2.34,12.56q-.75,3-1.68,5.89-.5,1.57-1.05,3.12l-.48,1.33c-.15.39-.93,1.57-.09,1.21l1.16.16.54.93-1.1,1.44.12,0a1.54,1.54,0,0,0,1.05-1.84,1.51,1.51,0,0,0-1.85-1l-.12,0a1.61,1.61,0,0,0-1.1,1.45,1.75,1.75,0,0,0,1.7,1.86c1.21,0,1.71-1.08,2.08-2,1.06-2.7,2-5.46,2.79-8.25a105.31,105.31,0,0,0,3.37-16.77h-3a96,96,0,0,1-4,18.19c-.6,1.86,2.22,2.57,2.9.8,1.82-4.8,3.71-9.66,5.05-14.62,1.23-4.53,1.66-9.25-.33-13.63a1.52,1.52,0,0,0-2.75.36,54.07,54.07,0,0,1-7.25,19.2l2.74.36a11.58,11.58,0,0,1,1.62-7.91l-2.74-1.15-3.25,11.32a1.51,1.51,0,0,0,2.9.8l2.22-7.69-2.95-.4L160.88,94c-.2,1.92,2.79,1.9,3,0a92.46,92.46,0,0,0,.54-13.92,1.5,1.5,0,0,0-3,0v9.44a1.5,1.5,0,0,0,3,0V81.75l-2.94.39a4.75,4.75,0,0,1-.39,2.44l2.89.8a27.11,27.11,0,0,1,1.71-5.92l-2.9-.79a10.11,10.11,0,0,1-1.27,3.8l2.8.76a13.44,13.44,0,0,1,3.14-7.11l-2.56-1.06c-.46,8.71-1.55,17.36-2.66,26h3a66,66,0,0,1,6.55-26.74c.84-1.73-1.74-3.26-2.59-1.52Z"/><path class="cls-1" d="M163.41,82.54v-2.9a1.52,1.52,0,0,0-1.1-1.45,1.8,1.8,0,0,0-.8,0,1.59,1.59,0,0,0-.9.69l-2.09,3L161.26,83a2.77,2.77,0,0,1,.15-.49l-.15.36a2.59,2.59,0,0,1,.34-.58l-.24.3a3.08,3.08,0,0,1,.51-.51l-.3.23a3,3,0,0,1,.58-.34l-2.05-2a3.87,3.87,0,0,0-.69,2,4,4,0,0,0,.41,2,1.5,1.5,0,0,0,.89.69,1.57,1.57,0,0,0,1.16-.16,1.5,1.5,0,0,0,.69-.89l.05-.4a1.57,1.57,0,0,0-.2-.76l0-.05.15.36a2.66,2.66,0,0,1-.17-.63l.06.39a2.36,2.36,0,0,1,0-.65l-.06.39a2.83,2.83,0,0,1,.18-.63l-.16.36a2.37,2.37,0,0,1,.31-.53l.15-.35a1.11,1.11,0,0,0,0-.6,1.4,1.4,0,0,0-.41-.86,1.7,1.7,0,0,0-.66-.39,1.61,1.61,0,0,0-1.16.15,4.13,4.13,0,0,0-2.26,2.82,1.51,1.51,0,0,0,.86,1.77,1.44,1.44,0,0,0,1,.08,1.76,1.76,0,0,0,.9-.69l2.09-3-2.79-.75v2.9a1.52,1.52,0,0,0,.44,1.06,1.5,1.5,0,0,0,2.56-1.06Z"/><path class="cls-1" d="M93.08,32.56C88.6,34.65,86,39.17,83.52,43.23c-2.76,4.52-5,9.2-5.29,14.57-.59,10,4.76,19.56,12.46,25.71a50.19,50.19,0,0,0,14.6,7.95c1.58.57,2.72-2.07,1.16-2.74-8.85-3.78-18.52-7.92-24-16.23A1.51,1.51,0,0,0,79.8,74,18.8,18.8,0,0,0,88,82.19c1.46.74,3.12-1.13,1.82-2.35a103.53,103.53,0,0,1-8.91-9.47l-2.13,2.12a7.76,7.76,0,0,1,1.75,3.27l2.9-.8L80,66c-.68-1.77-3.42-1.11-2.9.79L78,70c.52,1.88,3.26,1.08,2.9-.8l-1.24-6.36c-.34-1.81-2.76-1.14-2.94.4a9.84,9.84,0,0,0,.52,4.5c.53,1.5,3,1.39,2.94-.4a8,8,0,0,1,1.34-5c1.06-1.62-1.54-3.13-2.59-1.52a10.68,10.68,0,0,0-1.75,6.5l3-.4a7.77,7.77,0,0,1-.41-3.7l-3,.39L78,70l2.9-.8L80,66l-2.9.79,3.45,9c.68,1.76,3.41,1.11,2.9-.8a11.14,11.14,0,0,0-2.52-4.59c-1.31-1.45-3.34.66-2.13,2.12A105,105,0,0,0,87.73,82l1.82-2.36a16,16,0,0,1-7.15-7.11L79.8,74c5.87,8.81,15.72,13.29,25.13,17.3l1.16-2.74c-8.3-3-16.32-8-21-15.74A26.76,26.76,0,0,1,81.2,60,24.76,24.76,0,0,1,85,46.64c2.41-4.19,5-9.35,9.61-11.49,1.75-.82.23-3.41-1.51-2.59Z"/><path class="cls-1" d="M131.32,43.22a2.13,2.13,0,0,0-2-3.14c-2,.08-2,2-2.73,3.34-1.87,3.49-6.75,2.35-9.6,1.12-6.92-3-14.3-7.35-17.56-14.45a14.09,14.09,0,0,1-.64-10.88,17,17,0,0,1,6.58-7.81,36.24,36.24,0,0,1,11.38-4.63c4.26-1.09,8.58-2,12.93-2.66,8-1.2,16.11-1.25,23.9,1a49.47,49.47,0,0,1,18.1,9.66,48.42,48.42,0,0,1,12.56,16A27.41,27.41,0,0,1,187.38,43a31.6,31.6,0,0,1-3,12c-6.29,14.28-16.56,26.68-20.78,41.89a50.42,50.42,0,0,0-1.23,5.68c-.3,1.89,2.59,2.7,2.89.8,2.61-16.32,13.31-29.53,20.39-44A45.83,45.83,0,0,0,190,47.14a26,26,0,0,0-1.1-13.06A48.85,48.85,0,0,0,177,15.49a53.63,53.63,0,0,0-18-11.74A52.65,52.65,0,0,0,135.71.44a101.35,101.35,0,0,0-13.66,2,73.55,73.55,0,0,0-12.89,3.59c-7,2.87-13.4,8.39-14.13,16.33-.75,8.19,4.83,15.26,11.2,19.66a50.19,50.19,0,0,0,11,5.81c3.52,1.29,7.55,1.36,10.52-1.21a6.18,6.18,0,0,0,1.47-1.86,8,8,0,0,0,.47-1.14,2.7,2.7,0,0,0,.17-.6l0-.1c.27-.57-.14-1-1.22-1.24-1,1.63,1.56,3.14,2.6,1.51Z"/><path class="cls-1" d="M132.18,53.55a5.17,5.17,0,0,1,4.64-6.17,6.49,6.49,0,0,1,6.67,3.89,9.25,9.25,0,0,1-.57,8.65,13,13,0,0,1-3.21,3.65c-1.32,1.05-3,1.68-4.09,3-1.27,1.45.84,3.58,2.12,2.12,1.06-1.2,2.72-1.86,4-2.86a16.21,16.21,0,0,0,3.3-3.57,12.67,12.67,0,0,0,2.13-9.17,10.59,10.59,0,0,0-4.94-7.52,9.43,9.43,0,0,0-8.44-.35,8.11,8.11,0,0,0-4.48,9.16c.37,1.9,3.27,1.09,2.9-.79Z"/><path class="cls-1" d="M36.41,138.83a4.19,4.19,0,0,0-2.79,3.22,8.06,8.06,0,0,0,.83,4.69,1.58,1.58,0,0,0,1.44,1.1,1.66,1.66,0,0,0,1.67-1.68,1.76,1.76,0,0,0-1.68-1.74c-1.66,0-2.27,1.91-1.85,3.22a3.06,3.06,0,0,0,2.75,2.15,3.14,3.14,0,0,0,2.87-1.65,1.53,1.53,0,0,0-.54-2,1.5,1.5,0,0,0-2,.54s-.08.18-.1.18c.12-.15.15-.18.07-.1l-.07.07c-.16.13.21-.17.06,0l-.06,0c.24-.14-.09.07-.11,0l.19,0h-.21l.2,0s-.35-.15-.12,0,.11.05,0,0-.06,0,0,0,0,.05,0,0,.17.31,0,0c0,0-.11-.15-.1-.19l.08.17,0-.1c0-.24-.06.08,0,.09s.07-.38,0-.11c-.15.51-.28,1-1.34.71l-.66-.39a1.27,1.27,0,0,1-.29-1.12l.38-.66.23-.17.75-.21h-.06l1.45,1.1a14.62,14.62,0,0,1-.64-1.71c-.05-.16-.09-.32-.13-.49s-.07-.47,0-.17c0-.14-.12-.67,0-.79,0,.19,0,.24,0,.12l0-.16a1.68,1.68,0,0,1,.09-.32.75.75,0,0,1,0-.16c0-.1,0-.07,0,.11,0-.08.12-.23.16-.29l.12-.18-.1.13c0-.06.17-.17.22-.23.2-.2-.24.14.09,0s-.21.06.08,0a1.5,1.5,0,1,0-.8-2.89Z"/><path class="cls-1" d="M65.91,154a15.05,15.05,0,0,0,4.44-.3l-.79-2.9-2.08.69,1.15,2.74,2-1.47a1.5,1.5,0,0,0-1.51-2.6c-7.75,3.94-16.88,1.46-24.68-1-1.66-.52-2.57,1.86-1.16,2.74a29.8,29.8,0,0,0,12.86,4.36c1.67.16,2.07-2.66.4-2.95A98.13,98.13,0,0,1,43.07,150l-.79,2.89c9.39,2.51,20.57,5,29-1.43,1.25-1,.61-3.27-1.16-2.74l-2.49.73c-1.35.4-1.5,2.58,0,2.9a4.56,4.56,0,0,0,3.58-.61c1.61-1,.11-3.65-1.51-2.59a1.53,1.53,0,0,1-1.27.3v2.9L71,151.6l-1.16-2.74c-7.82,6-18,3.44-26.72,1.13a1.5,1.5,0,0,0-.79,2.89,96.56,96.56,0,0,0,13.41,3.32l.4-2.94a26.28,26.28,0,0,1-11.34-3.95l-1.16,2.75c8.67,2.71,18.44,5,27,.68l-1.51-2.6-1.95,1.48c-1.24.94-.6,3.32,1.16,2.74l2.07-.68a1.5,1.5,0,0,0-.79-2.9,12.09,12.09,0,0,1-3.65.2c-1.92-.18-1.91,2.83,0,3Z"/><path class="cls-1" d="M40.91,137.43l.14,0a1.47,1.47,0,0,0,1.29-.74,1.73,1.73,0,0,0-2.16-2.52c-1.43.61-2.22,3-2.71,4.35-1.21,3.27-1,7.17,1.68,9.64,2.33,2.12,5.6,2.72,8.65,2.9a49.79,49.79,0,0,0,11-.55,28.8,28.8,0,0,0,11.6-4.42l-2.2-1.7a9,9,0,0,1-9.95,5.1l-.4,3A16.9,16.9,0,0,0,69.42,148l-2.51-.67a4.59,4.59,0,0,0,2.32,3.35,1.5,1.5,0,0,0,1.52-2.59,1.87,1.87,0,0,1-1-1.55c-.16-1.2-1.77-1.33-2.5-.67a13.73,13.73,0,0,1-9.41,3.55c-1.66,0-2.08,2.57-.4,2.95a12,12,0,0,0,13.64-7.2c.5-1.21-1.18-2.39-2.2-1.69-5.88,4-13.11,4.82-20.06,4.61-2.64-.08-6-.32-7.95-2.42a5.11,5.11,0,0,1-1.12-4.39,11.64,11.64,0,0,1,.71-2.38c.17-.39.36-.78.56-1.16l.41-.73c.3-.43.28-.46-.09-.08l-1.46-.39.13.11-.44-1.06.13-.44,1.3-.74-.14,0c-1.91-.21-1.9,2.79,0,3Z"/><path class="cls-1" d="M58.06,148.25c-.4.22-.82.44-1.24.63l-.26.11c.43-.19,0,0-.07,0l-.61.23a15.68,15.68,0,0,1-2.62.65,1.47,1.47,0,0,0-.89.69,1.53,1.53,0,0,0-.18,1,1.51,1.51,0,0,0,1.47,1.3l2.9.16A1.52,1.52,0,0,0,58,151.9a1.55,1.55,0,0,0-.69-1.7,5.81,5.81,0,0,0-4.06-.65,1.52,1.52,0,0,0-1,1.85,1.54,1.54,0,0,0,1.85,1l.25,0-.4,0a4.66,4.66,0,0,1,1.12,0l-.4-.06a4.56,4.56,0,0,1,.75.18s.14,0,.16.06-.31-.14-.12,0l.38.2.76-2.79-2.9-.16.4,2.94a17,17,0,0,0,5.52-1.94,1.51,1.51,0,0,0,.54-2.05,1.53,1.53,0,0,0-2.06-.54Z"/><path class="cls-1" d="M33.93,141c-2.11,3.31-1.19,7.62,1.29,10.47,2.71,3.1,7,4.43,10.92,5.18A40.49,40.49,0,0,0,71.9,153c1.72-.87.2-3.46-1.52-2.59A37.16,37.16,0,0,1,48.63,154c-3.37-.47-7.1-1.28-9.87-3.37-2.45-1.85-4-5.33-2.24-8.16,1-1.63-1.55-3.14-2.59-1.51Z"/></g></g></svg>