<svg xmlns="http://www.w3.org/2000/svg" viewBox="0 0 101.08 113.02"><defs><style>.cls-1{fill:#fff;fill-rule:evenodd;}</style></defs><g id="Layer_2" data-name="Layer 2"><g id="Layer_1-2" data-name="Layer 1"><path class="cls-1" d="M49.66,113H81.58c10.78,0,19.5-8.43,19.5-18.84V28.93A12,12,0,0,0,88.9,17.15a13.92,13.92,0,0,0-2.44.23V16.07A12,12,0,0,0,74.27,4.29a12.3,12.3,0,0,0-4.58.85A12.21,12.21,0,0,0,59.65,0,12,12,0,0,0,47.52,11,15,15,0,0,0,45,10.74,12,12,0,0,0,32.85,22.52v45l-11.75-6a10,10,0,0,0-11,1.27L0,71.37l35.58,35.86A20,20,0,0,0,49.66,113ZM42.6,100.68,14,71.94l2.48-2.12L42.6,83.15V22.52A2.41,2.41,0,0,1,45,20.16a2.38,2.38,0,0,1,2.44,2.36v34h9.75V11.78a2.44,2.44,0,0,1,4.87,0V56.49h9.75V16.07a2.44,2.44,0,0,1,4.87,0V56.49h9.75V28.93a2.44,2.44,0,0,1,4.87,0V94.18a9.61,9.61,0,0,1-9.75,9.42h-32A10,10,0,0,1,42.6,100.68Z"/></g></g></svg>